<svg width="29" height="18" viewBox="0 0 29 18" fill="none" xmlns="http://www.w3.org/2000/svg">
<path d="M21.6821 17.9077C20.0381 17.9077 18.3937 17.9123 16.7484 17.9052C16.1446 17.9027 15.555 17.8105 15.0388 17.4494C14.3522 16.9697 14.0875 16.1083 14.3534 15.3008C14.545 14.7192 14.8867 14.2306 15.2296 13.7437C16.2897 12.2427 17.3596 10.75 18.4251 9.2532C18.5979 9.01039 18.5906 8.97378 18.4039 8.74822C17.6533 7.84319 16.9038 6.93703 16.1552 6.02975C15.9411 5.77095 15.8751 5.77263 15.6777 6.0449C14.3835 7.82832 13.0892 9.6116 11.7948 11.3947C11.1204 12.3205 10.0444 12.5549 9.06868 11.9654C8.79835 11.8021 8.5643 11.5652 8.33801 11.3362C7.17799 10.1643 6.02695 8.98262 4.86815 7.8098C4.79924 7.73995 4.68712 7.71638 4.59538 7.67135C4.5546 7.78077 4.47958 7.89018 4.47958 8.00001C4.47265 10.4618 4.47672 12.9236 4.47305 15.3845C4.47305 16.4205 4.03188 17.2079 3.15443 17.7103C1.71103 18.5364 0.000976562 17.4894 0.000976562 15.7876C0.000976562 11.3135 0.00206456 6.83884 0.00423917 2.3636C0.00423917 1.34354 0.48904 0.604584 1.39259 0.207754C2.27167 -0.178556 3.11692 -0.0321116 3.82026 0.62857C4.60842 1.36837 5.34765 2.16371 6.10768 2.93591L9.79404 6.68622C9.97222 6.86717 10.0525 6.85876 10.1989 6.65298C11.5627 4.73097 12.9275 2.80924 14.2934 0.887793C14.6938 0.326845 15.2553 0.0326938 15.9244 0.0305898C19.6071 0.0196485 23.2903 0.018667 26.9741 0.0276444C27.9718 0.0276444 28.886 0.884427 28.99 1.87924C29.1037 2.97126 28.4403 3.98332 27.4344 4.23202C27.2096 4.28458 26.9796 4.31042 26.749 4.30903C24.8192 4.31492 22.8894 4.3124 20.9591 4.3124C20.898 4.3124 20.8332 4.29935 20.7765 4.31576C20.6978 4.33891 20.5869 4.36584 20.5608 4.42475C20.5347 4.48367 20.5734 4.60318 20.6219 4.66378C20.9979 5.13383 21.3816 5.59757 21.7636 6.06089C22.1088 6.47974 22.4549 6.89579 22.8017 7.30903C23.1787 7.74819 23.4126 8.29839 23.4704 8.88204C23.5344 9.50653 23.3073 10.0448 22.9379 10.5123C22.248 11.3863 21.5357 12.2414 20.8319 13.1041C20.7622 13.1883 20.6782 13.2665 20.6228 13.3608C20.582 13.4306 20.5412 13.5329 20.5636 13.6019C20.5791 13.6541 20.686 13.6861 20.7589 13.7075C20.8152 13.7244 20.8813 13.7118 20.9416 13.7118C22.9053 13.7118 24.869 13.7067 26.8326 13.7143C27.6534 13.7172 28.3115 14.0732 28.7396 14.7996C29.2884 15.7317 28.8795 17.0833 27.9127 17.6304C27.5842 17.8173 27.2146 17.9136 26.8396 17.9102C25.1205 17.9069 23.4014 17.906 21.6821 17.9077Z" fill="url(#paint0_linear_288_124)"/>
<defs>
<linearGradient id="paint0_linear_288_124" x1="30.3053" y1="8.99987" x2="-1.1676" y2="8.99987" gradientUnits="userSpaceOnUse">
<stop stop-color="#EF4D98"/>
<stop offset="1" stop-color="#950DE9"/>
</linearGradient>
</defs>
</svg>
