<?xml version="1.0" encoding="utf-8"?>
<!-- Generator: Adobe Illustrator 26.0.0, SVG Export Plug-In . SVG Version: 6.00 Build 0)  -->
<svg version="1.1" xmlns="http://www.w3.org/2000/svg" xmlns:xlink="http://www.w3.org/1999/xlink" x="0px" y="0px"
	 viewBox="0 0 574 574" style="enable-background:new 0 0 574 574;" xml:space="preserve">
<style type="text/css">
	.st0{fill:#242426;}
	.st1{fill:#1B1B1D;}
</style>
<g id="Layer_2">
</g>
<g id="Layer_1">
	<g>
		<g>
			<rect class="st0" width="574" height="574"/>
		</g>
		<path class="st1" d="M445.74,510.08c-10.91-24.95-37.42-73.28-37.42-77.96s-3.12-23.39-10.91-24.95
			c23.39-20.27,34.3-40.54,32.74-77.96c-1.56-37.42-6.24-42.1-6.24-46.77s14.03-21.83,12.47-38.98
			c-1.56-17.15-21.83-29.62-28.06-34.3c-6.24-4.68-6.24-12.47-7.8-18.71c-1.55-6.2-6.2-100.23-113.52-104.38v0c0,0-0.01,0-0.01,0
			s-0.01,0-0.01,0v0c-107.32,4.15-111.97,98.18-113.52,104.38c-1.56,6.24-1.56,14.03-7.8,18.71c-6.24,4.68-26.5,17.15-28.06,34.3
			c-1.56,17.15,12.47,34.3,12.47,38.98s-4.68,9.35-6.24,46.77c-1.56,37.42,9.35,57.69,32.74,77.96
			c-7.8,1.56-10.91,20.27-10.91,24.95s-26.5,53.01-37.42,77.96c-10.91,24.95-20.27,62.54-20.27,62.54h57.62
			c0,0,0.07-42.27,3.19-48.5c3.12-6.24,26.5-59.25,31.41-70.16c4.9,3.12,12.25,54.57,15.36,65.48c3.12,10.91-0.75,54.57-0.75,54.57
			h72.17h0.02h72.17c0,0-3.87-43.65-0.75-54.57c3.12-10.91,10.46-62.36,15.36-65.48c4.9,10.91,28.29,63.92,31.41,70.16
			c3.12,6.24,3.19,48.5,3.19,48.5h57.62C466.01,572.61,456.65,535.02,445.74,510.08z"/>
	</g>
</g>
</svg>
